<svg width="116" height="29" viewBox="0 0 116 29" fill="none" xmlns="http://www.w3.org/2000/svg">
<path d="M37.4542 4.37986C37.4706 4.74658 37.4126 5.11284 37.2837 5.45656C37.1548 5.80028 36.9577 6.11435 36.7042 6.37986C36.4201 6.67315 36.0773 6.90315 35.6982 7.0548C35.3191 7.20645 34.9122 7.27632 34.5042 7.25986C34.0939 7.269 33.686 7.19385 33.3059 7.03904C32.9257 6.88424 32.5814 6.65307 32.2942 6.35986C31.7115 5.76382 31.3853 4.9634 31.3853 4.12986C31.3853 3.29632 31.7115 2.49589 32.2942 1.89986C32.7397 1.46454 33.3039 1.17059 33.916 1.05495C34.528 0.939298 35.1606 1.00711 35.7342 1.24986C36.0948 1.39809 36.4164 1.62734 36.6742 1.91986L36.1442 2.44986C35.9456 2.21063 35.694 2.02099 35.4093 1.89601C35.1246 1.77103 34.8147 1.71414 34.5042 1.72986C34.1122 1.73257 33.7269 1.83125 33.3818 2.01727C33.0368 2.2033 32.7426 2.471 32.5249 2.79698C32.3072 3.12297 32.1727 3.49731 32.1331 3.88729C32.0935 4.27727 32.15 4.67102 32.2977 5.03412C32.4454 5.39721 32.6798 5.7186 32.9804 5.9702C33.281 6.22179 33.6386 6.39593 34.022 6.4774C34.4055 6.55886 34.803 6.54517 35.1799 6.43752C35.5568 6.32987 35.9016 6.13154 36.1842 5.85986C36.4897 5.52496 36.6668 5.09279 36.6842 4.63986H34.5042V3.91986H37.4142C37.437 4.07222 37.4503 4.22585 37.4542 4.37986Z" fill="white" stroke="white" stroke-width="0.2" stroke-miterlimit="10"/>
<path d="M42.0342 1.87989H39.3342V3.77989H41.7942V4.49989H39.3342V6.39989H42.0342V7.13989H38.5542V1.13989H42.0342V1.87989Z" fill="white" stroke="white" stroke-width="0.2" stroke-miterlimit="10"/>
<path d="M45.3143 7.13989H44.5443V1.87989H42.8643V1.13989H47.0343V1.87989H45.3143V7.13989Z" fill="white" stroke="white" stroke-width="0.2" stroke-miterlimit="10"/>
<path d="M49.9741 7.13989V1.13989H50.7441V7.13989H49.9741Z" fill="white" stroke="white" stroke-width="0.2" stroke-miterlimit="10"/>
<path d="M54.1644 7.13989H53.3944V1.87989H51.7144V1.13989H55.8344V1.87989H54.1644V7.13989Z" fill="white" stroke="white" stroke-width="0.2" stroke-miterlimit="10"/>
<path d="M63.6443 6.35979C63.3555 6.64885 63.0126 6.87816 62.6351 7.03461C62.2576 7.19106 61.853 7.27159 61.4443 7.27159C61.0357 7.27159 60.6311 7.19106 60.2536 7.03461C59.8761 6.87816 59.5332 6.64885 59.2443 6.35979C58.679 5.75884 58.3643 4.96486 58.3643 4.13979C58.3643 3.31473 58.679 2.52074 59.2443 1.91979C59.5269 1.62259 59.8688 1.38803 60.2477 1.23127C60.6267 1.07451 61.0344 0.999062 61.4443 1.00979C61.8537 1.00332 62.2601 1.08071 62.6385 1.23721C63.0168 1.39371 63.3591 1.62601 63.6443 1.91979C63.9319 2.21228 64.1579 2.55942 64.309 2.94072C64.4602 3.32202 64.5334 3.72973 64.5243 4.13979C64.5375 4.55036 64.4661 4.95925 64.3148 5.34113C64.1634 5.723 63.9352 6.06972 63.6443 6.35979V6.35979ZM59.8143 5.85979C60.0274 6.07567 60.2812 6.24708 60.561 6.36407C60.8408 6.48107 61.1411 6.54131 61.4443 6.54131C61.7476 6.54131 62.0479 6.48107 62.3277 6.36407C62.6075 6.24708 62.8613 6.07567 63.0743 5.85979C63.5058 5.39092 63.7453 4.77699 63.7453 4.13979C63.7453 3.50259 63.5058 2.88866 63.0743 2.41979C62.8613 2.20391 62.6075 2.0325 62.3277 1.91551C62.0479 1.79851 61.7476 1.73827 61.4443 1.73827C61.1411 1.73827 60.8408 1.79851 60.561 1.91551C60.2812 2.0325 60.0274 2.20391 59.8143 2.41979C59.3828 2.88866 59.1433 3.50259 59.1433 4.13979C59.1433 4.77699 59.3828 5.39092 59.8143 5.85979V5.85979Z" fill="white" stroke="white" stroke-width="0.2" stroke-miterlimit="10"/>
<path d="M65.6143 7.13989V1.13989H66.5443L69.4643 5.80989V4.64989V1.13989H70.2343V7.13989H69.4343L66.3843 2.24989V3.39989V7.13989H65.6143Z" fill="white" stroke="white" stroke-width="0.2" stroke-miterlimit="10"/>
<path d="M58.1743 15.8898C57.3317 15.8918 56.5087 16.1436 55.8092 16.6133C55.1098 17.0831 54.5653 17.7497 54.2447 18.5288C53.9241 19.308 53.8418 20.1647 54.0081 20.9907C54.1744 21.8167 54.5819 22.5748 55.1791 23.1691C55.7763 23.7635 56.5363 24.1675 57.363 24.3299C58.1898 24.4923 59.0461 24.4059 59.8238 24.0817C60.6014 23.7574 61.2654 23.2099 61.7319 22.5082C62.1983 21.8066 62.4463 20.9824 62.4443 20.1398C62.4524 19.5778 62.3474 19.0198 62.1355 18.4992C61.9235 17.9785 61.6089 17.5059 61.2105 17.1093C60.8121 16.7128 60.338 16.4004 59.8164 16.1909C59.2947 15.9814 58.7363 15.879 58.1743 15.8898ZM58.1743 22.7198C57.6579 22.7559 57.1425 22.6359 56.6952 22.3752C56.248 22.1145 55.8895 21.7254 55.6663 21.2583C55.4431 20.7911 55.3657 20.2677 55.444 19.756C55.5222 19.2442 55.7527 18.7679 56.1052 18.3889C56.4578 18.0098 56.9163 17.7456 57.4211 17.6306C57.9258 17.5156 58.4535 17.555 58.9355 17.7439C59.4175 17.9327 59.8315 18.2622 60.1238 18.6895C60.4161 19.1168 60.573 19.6221 60.5743 20.1398C60.5904 20.4678 60.5407 20.7957 60.428 21.1042C60.3154 21.4127 60.1421 21.6955 59.9184 21.936C59.6947 22.1764 59.4252 22.3697 59.1256 22.5043C58.8261 22.6389 58.5026 22.7122 58.1743 22.7198ZM48.8543 15.8898C48.0117 15.8918 47.1887 16.1436 46.4892 16.6133C45.7898 17.0831 45.2453 17.7497 44.9247 18.5288C44.6041 19.308 44.5218 20.1647 44.6881 20.9907C44.8544 21.8167 45.2619 22.5748 45.8591 23.1691C46.4563 23.7635 47.2163 24.1675 48.043 24.3299C48.8698 24.4923 49.7261 24.4059 50.5038 24.0817C51.2814 23.7574 51.9454 23.2099 52.4119 22.5082C52.8783 21.8066 53.1263 20.9824 53.1243 20.1398C53.1324 19.5778 53.0274 19.0198 52.8155 18.4992C52.6035 17.9785 52.2889 17.5059 51.8905 17.1093C51.4921 16.7128 51.018 16.4004 50.4964 16.1909C49.9747 15.9814 49.4163 15.879 48.8543 15.8898ZM48.8543 22.7198C48.3379 22.7559 47.8225 22.6359 47.3752 22.3752C46.928 22.1145 46.5695 21.7254 46.3463 21.2583C46.1231 20.7911 46.0457 20.2677 46.124 19.756C46.2022 19.2442 46.4327 18.7679 46.7852 18.3889C47.1378 18.0098 47.5963 17.7456 48.1011 17.6306C48.6058 17.5156 49.1335 17.555 49.6155 17.7439C50.0975 17.9327 50.5115 18.2622 50.8038 18.6895C51.0961 19.1168 51.253 19.6221 51.2543 20.1398C51.2704 20.4678 51.2207 20.7957 51.108 21.1042C50.9954 21.4127 50.8221 21.6955 50.5984 21.936C50.3747 22.1764 50.1052 22.3697 49.8056 22.5043C49.5061 22.6389 49.1826 22.7122 48.8543 22.7198ZM37.7743 17.1998V18.9998H42.0943C42.0265 19.8476 41.6741 20.6476 41.0943 21.2698C40.6609 21.7113 40.1397 22.057 39.5644 22.2843C38.989 22.5117 38.3724 22.6158 37.7543 22.5898C36.4812 22.5898 35.2603 22.0841 34.3602 21.1839C33.46 20.2838 32.9543 19.0629 32.9543 17.7898C32.9543 16.5168 33.46 15.2959 34.3602 14.3957C35.2603 13.4955 36.4812 12.9898 37.7543 12.9898C38.9747 12.9717 40.1532 13.4351 41.0343 14.2798L42.3043 13.0098C41.7083 12.4203 41.0006 11.9557 40.2227 11.6432C39.4449 11.3307 38.6125 11.1765 37.7743 11.1898C36.8853 11.1552 35.9984 11.3004 35.1669 11.6168C34.3354 11.9331 33.5762 12.4141 32.935 13.0308C32.2938 13.6476 31.7837 14.3874 31.4353 15.206C31.0868 16.0246 30.9072 16.9051 30.9072 17.7948C30.9072 18.6845 31.0868 19.565 31.4353 20.3836C31.7837 21.2022 32.2938 21.9421 32.935 22.5588C33.5762 23.1755 34.3354 23.6565 35.1669 23.9728C35.9984 24.2892 36.8853 24.4344 37.7743 24.3998C38.6297 24.434 39.4827 24.2868 40.2772 23.968C41.0717 23.6491 41.7898 23.1658 42.3843 22.5498C43.4344 21.3962 43.9939 19.879 43.9443 18.3198C43.9479 17.9445 43.9177 17.5697 43.8543 17.1998H37.7743ZM83.0843 18.5998C82.8235 17.8326 82.3358 17.1626 81.6858 16.6787C81.0358 16.1947 80.2541 15.9196 79.4443 15.8898C78.8973 15.8887 78.3559 15.9999 77.8535 16.2163C77.3512 16.4328 76.8986 16.75 76.5237 17.1483C76.1488 17.5467 75.8595 18.0177 75.6739 18.5322C75.4882 19.0467 75.4101 19.5939 75.4443 20.1398C75.4357 21.0527 75.7227 21.9438 76.2624 22.6801C76.8021 23.4164 77.5655 23.9583 78.4385 24.225C79.3116 24.4916 80.2475 24.4687 81.1065 24.1595C81.9654 23.8504 82.7013 23.2717 83.2043 22.5098L81.7543 21.5098C81.5381 21.8701 81.2315 22.1676 80.8649 22.3728C80.4983 22.5781 80.0844 22.6839 79.6643 22.6798C79.2309 22.6977 78.8022 22.5841 78.4345 22.3538C78.0668 22.1236 77.7774 21.7876 77.6043 21.3898L83.2943 19.0398L83.0843 18.5998ZM77.2843 20.0198C77.264 19.7092 77.3059 19.3977 77.4076 19.1034C77.5092 18.8092 77.6685 18.5382 77.8762 18.3063C78.0839 18.0745 78.3357 17.8863 78.617 17.753C78.8983 17.6197 79.2033 17.5438 79.5143 17.5298C79.8365 17.5101 80.1573 17.586 80.4366 17.7479C80.7159 17.9098 80.9412 18.1505 81.0843 18.4398L77.2843 20.0198ZM72.6643 24.1398H74.5343V11.6398H72.6643V24.1398ZM69.6043 16.8398H69.5343C69.2549 16.5217 68.9102 16.2676 68.5236 16.095C68.137 15.9224 67.7176 15.8354 67.2943 15.8398C66.2015 15.8928 65.1709 16.3642 64.4163 17.1564C63.6616 17.9486 63.2406 19.0007 63.2406 20.0948C63.2406 21.1889 63.6616 22.2411 64.4163 23.0332C65.1709 23.8254 66.2015 24.2968 67.2943 24.3498C67.7182 24.3583 68.1389 24.2731 68.5261 24.1002C68.9133 23.9274 69.2576 23.6711 69.5343 23.3498H69.6043V23.9598C69.6043 25.5898 68.7343 26.4598 67.3343 26.4598C66.8666 26.4495 66.4125 26.3005 66.0297 26.0317C65.6469 25.7628 65.3526 25.3863 65.1843 24.9498L63.5643 25.6198C63.8638 26.3721 64.3845 27.0157 65.0577 27.4657C65.7308 27.9156 66.5247 28.1507 67.3343 28.1398C69.5243 28.1398 71.3343 26.8498 71.3343 23.7098V16.1398H69.6043V16.8398ZM67.4543 22.7198C66.7991 22.679 66.1841 22.3899 65.7346 21.9115C65.2851 21.4331 65.0348 20.8013 65.0348 20.1448C65.0348 19.4883 65.2851 18.8566 65.7346 18.3782C66.1841 17.8997 66.7991 17.6107 67.4543 17.5698C67.7745 17.5836 68.0887 17.6617 68.3781 17.7995C68.6676 17.9372 68.9264 18.1317 69.1391 18.3715C69.3518 18.6113 69.5141 18.8914 69.6164 19.1952C69.7186 19.499 69.7587 19.8202 69.7343 20.1398C69.7616 20.4605 69.7235 20.7834 69.6224 21.089C69.5214 21.3945 69.3594 21.6764 69.1462 21.9176C68.9331 22.1588 68.6733 22.3542 68.3825 22.4921C68.0917 22.63 67.7759 22.7075 67.4543 22.7198ZM91.8443 11.6398H87.3643V24.1398H89.2343V19.3998H91.8443C92.3772 19.4381 92.9124 19.3662 93.4163 19.1885C93.9202 19.0109 94.3822 18.7313 94.7733 18.3673C95.1644 18.0033 95.4764 17.5626 95.6897 17.0726C95.9029 16.5827 96.013 16.0541 96.013 15.5198C96.013 14.9855 95.9029 14.4569 95.6897 13.967C95.4764 13.4771 95.1644 13.0364 94.7733 12.6723C94.3822 12.3083 93.9202 12.0287 93.4163 11.8511C92.9124 11.6734 92.3772 11.6015 91.8443 11.6398ZM91.8443 17.6398H89.2343V13.3798H91.8843C92.1653 13.3798 92.4436 13.4352 92.7032 13.5427C92.9629 13.6503 93.1988 13.8079 93.3975 14.0066C93.5962 14.2053 93.7538 14.4412 93.8614 14.7009C93.9689 14.9605 94.0243 15.2388 94.0243 15.5198C94.0243 15.8008 93.9689 16.0791 93.8614 16.3388C93.7538 16.5984 93.5962 16.8343 93.3975 17.033C93.1988 17.2317 92.9629 17.3894 92.7032 17.4969C92.4436 17.6045 92.1653 17.6598 91.8843 17.6598L91.8443 17.6398ZM103.384 15.8498C102.703 15.8078 102.025 15.9664 101.433 16.3058C100.841 16.6453 100.362 17.1508 100.054 17.7598L101.704 18.4498C101.871 18.1492 102.121 17.9033 102.425 17.7418C102.728 17.5804 103.072 17.5102 103.414 17.5398C103.652 17.5121 103.892 17.5319 104.122 17.5981C104.351 17.6644 104.566 17.7757 104.752 17.9255C104.938 18.0754 105.092 18.2608 105.206 18.471C105.32 18.6812 105.391 18.912 105.414 19.1498V19.2698C104.813 18.9537 104.144 18.789 103.464 18.7898C101.684 18.7898 99.8643 19.7898 99.8643 21.6098C99.8819 21.9967 99.9771 22.376 100.144 22.7254C100.311 23.0747 100.547 23.3869 100.837 23.6434C101.127 23.8999 101.466 24.0955 101.833 24.2186C102.2 24.3417 102.588 24.3897 102.974 24.3598C103.444 24.3858 103.911 24.2865 104.329 24.0721C104.748 23.8577 105.101 23.5359 105.354 23.1398H105.414V24.1398H107.214V19.3298C107.214 17.1398 105.554 15.8698 103.424 15.8698L103.384 15.8498ZM103.154 22.6998C102.544 22.6998 101.694 22.3898 101.694 21.6398C101.694 20.6398 102.754 20.2998 103.694 20.2998C104.288 20.2852 104.875 20.4302 105.394 20.7198C105.331 21.2629 105.074 21.7648 104.669 22.1325C104.265 22.5003 103.741 22.7089 103.194 22.7198L103.154 22.6998ZM113.774 16.1398L111.634 21.5598H111.574L109.354 16.1398H107.354L110.684 23.7198L108.784 27.9298H110.734L115.854 16.1398H113.774ZM96.9743 24.1398H98.8343V11.6398H96.9743V24.1398Z" fill="white"/>
<path d="M0.474302 1.67986C0.144771 2.06948 -0.0233704 2.57033 0.00430051 3.07986V25.1999C-0.0297255 25.7102 0.139195 26.2134 0.474302 26.5999L0.544301 26.6799L12.9343 14.2899V13.9899L0.544301 1.60986L0.474302 1.67986Z" fill="url(#paint0_linear_731_945)"/>
<path d="M17.0341 18.4199L12.9341 14.2899V13.9899L17.0341 9.85986L17.1241 9.91986L22.0341 12.6999C23.4341 13.4899 23.4341 14.7899 22.0341 15.5899L17.1441 18.3699L17.0341 18.4199Z" fill="url(#paint1_linear_731_945)"/>
<path d="M17.1541 18.3599L12.9341 14.1399L0.474121 26.5999C0.756695 26.8514 1.11839 26.9961 1.49647 27.0089C1.87456 27.0217 2.2452 26.9018 2.54412 26.6699L17.1541 18.3599" fill="url(#paint2_linear_731_945)"/>
<path d="M17.1541 9.91986L2.54412 1.61986C2.24715 1.38478 1.8768 1.26192 1.49819 1.27289C1.11959 1.28387 0.756981 1.42797 0.474121 1.67986L12.9341 14.1399L17.1541 9.91986Z" fill="url(#paint3_linear_731_945)"/>
<defs>
<linearGradient id="paint0_linear_731_945" x1="11.8343" y1="2.84986" x2="-4.9457" y2="19.6299" gradientUnits="userSpaceOnUse">
<stop stop-color="#00A0FF"/>
<stop offset="0.01" stop-color="#00A1FF"/>
<stop offset="0.26" stop-color="#00BEFF"/>
<stop offset="0.51" stop-color="#00D2FF"/>
<stop offset="0.76" stop-color="#00DFFF"/>
<stop offset="1" stop-color="#00E3FF"/>
</linearGradient>
<linearGradient id="paint1_linear_731_945" x1="23.8641" y1="14.1399" x2="-0.325916" y2="14.1399" gradientUnits="userSpaceOnUse">
<stop stop-color="#FFE000"/>
<stop offset="0.41" stop-color="#FFBD00"/>
<stop offset="0.78" stop-color="#FFA500"/>
<stop offset="1" stop-color="#FF9C00"/>
</linearGradient>
<linearGradient id="paint2_linear_731_945" x1="14.8641" y1="16.4399" x2="-7.89588" y2="39.1899" gradientUnits="userSpaceOnUse">
<stop stop-color="#FF3A44"/>
<stop offset="1" stop-color="#C31162"/>
</linearGradient>
<linearGradient id="paint3_linear_731_945" x1="-2.66588" y1="-5.68014" x2="7.49412" y2="4.47986" gradientUnits="userSpaceOnUse">
<stop stop-color="#32A071"/>
<stop offset="0.07" stop-color="#2DA771"/>
<stop offset="0.48" stop-color="#15CF74"/>
<stop offset="0.8" stop-color="#06E775"/>
<stop offset="1" stop-color="#00F076"/>
</linearGradient>
</defs>
</svg>
