<svg width="101" height="26" viewBox="0 0 101 26" fill="none" xmlns="http://www.w3.org/2000/svg">
<path d="M14.7973 11.8637C14.8081 11.029 15.0298 10.2106 15.4418 9.48469C15.8538 8.75874 16.4428 8.1488 17.1539 7.71162C16.7021 7.06646 16.1062 6.53552 15.4134 6.16097C14.7205 5.78642 13.9499 5.57857 13.1627 5.55394C11.4835 5.37768 9.85552 6.55877 8.99981 6.55877C8.12754 6.55877 6.81004 5.57144 5.39131 5.60063C4.47364 5.63028 3.57929 5.89714 2.79541 6.37519C2.01154 6.85325 1.36486 7.52621 0.918393 8.3285C-1.01561 11.6769 0.426982 16.598 2.27959 19.3046C3.20649 20.6299 4.28977 22.1104 5.70722 22.0579C7.09428 22.0004 7.61232 21.1734 9.28662 21.1734C10.9454 21.1734 11.4314 22.0579 12.8776 22.0245C14.366 22.0003 15.3038 20.6933 16.1981 19.3554C16.8641 18.411 17.3766 17.3673 17.7166 16.2629C16.8518 15.8971 16.1139 15.2849 15.5948 14.5027C15.0757 13.7204 14.7983 12.8026 14.7973 11.8637Z" fill="white"/>
<path d="M12.0659 3.77388C12.8774 2.79968 13.2772 1.5475 13.1804 0.283264C11.9406 0.413485 10.7953 1.00604 9.97283 1.94287C9.57069 2.40054 9.26269 2.93298 9.06645 3.50975C8.8702 4.08652 8.78956 4.69631 8.82912 5.30426C9.44926 5.31065 10.0628 5.17624 10.6234 4.91115C11.1841 4.64606 11.6773 4.25721 12.0659 3.77388Z" fill="white"/>
<path d="M32.9033 18.7026H28.1699L27.0332 22.0591H25.0283L29.5117 9.64105H31.5947L36.0781 22.0591H34.0391L32.9033 18.7026ZM28.6602 17.1538H32.4122L30.5625 11.7065H30.5108L28.6602 17.1538Z" fill="white"/>
<path d="M45.7608 17.5327C45.7608 20.3462 44.2549 22.1538 41.9825 22.1538C41.4068 22.1839 40.8343 22.0513 40.3305 21.7711C39.8267 21.491 39.412 21.0747 39.1338 20.5698H39.0908V25.0542H37.2324V13.0053H39.0313V14.5112H39.0655C39.3564 14.0087 39.7781 13.5945 40.2858 13.3127C40.7934 13.0308 41.3679 12.8919 41.9483 12.9106C44.2461 12.9106 45.7608 14.727 45.7608 17.5327ZM43.8506 17.5327C43.8506 15.6997 42.9033 14.4946 41.458 14.4946C40.0381 14.4946 39.083 15.7251 39.083 17.5327C39.083 19.3569 40.0381 20.5786 41.458 20.5786C42.9034 20.5786 43.8506 19.3823 43.8506 17.5327Z" fill="white"/>
<path d="M55.7256 17.5327C55.7256 20.3462 54.2198 22.1538 51.9473 22.1538C51.3716 22.1839 50.7991 22.0513 50.2953 21.7712C49.7916 21.4911 49.3768 21.0747 49.0987 20.5698H49.0557V25.0542H47.1973V13.0054H48.9961V14.5112H49.0303C49.3212 14.0088 49.743 13.5946 50.2506 13.3127C50.7582 13.0309 51.3328 12.8919 51.9131 12.9107C54.211 12.9107 55.7256 14.7271 55.7256 17.5327ZM53.8155 17.5327C53.8155 15.6997 52.8682 14.4946 51.4229 14.4946C50.003 14.4946 49.0479 15.7251 49.0479 17.5327C49.0479 19.357 50.003 20.5786 51.4229 20.5786C52.8682 20.5786 53.8155 19.3823 53.8155 17.5327H53.8155Z" fill="white"/>
<path d="M62.3116 18.5991C62.4493 19.8306 63.6456 20.6391 65.2803 20.6391C66.8467 20.6391 67.9737 19.8305 67.9737 18.7202C67.9737 17.7563 67.294 17.1792 65.6846 16.7836L64.0752 16.3959C61.795 15.8452 60.7364 14.7788 60.7364 13.0483C60.7364 10.9057 62.6036 9.43402 65.2549 9.43402C67.8789 9.43402 69.6778 10.9057 69.7383 13.0483H67.8623C67.75 11.809 66.7256 11.061 65.2285 11.061C63.7315 11.061 62.707 11.8178 62.707 12.9194C62.707 13.7973 63.3613 14.3139 64.9619 14.7094L66.3301 15.0453C68.8779 15.6479 69.9365 16.6713 69.9365 18.4877C69.9365 20.8109 68.0859 22.266 65.1426 22.266C62.3887 22.266 60.5293 20.8451 60.4092 18.599L62.3116 18.5991Z" fill="white"/>
<path d="M73.9473 10.8628V13.0054H75.6689V14.4771H73.9473V19.4683C73.9473 20.2437 74.292 20.605 75.0488 20.605C75.2532 20.6014 75.4573 20.5871 75.6601 20.562V22.0249C75.3199 22.0885 74.974 22.1172 74.6279 22.1108C72.7949 22.1108 72.0801 21.4223 72.0801 19.6665V14.4771H70.7637V13.0054H72.08V10.8628H73.9473Z" fill="white"/>
<path d="M76.666 17.5327C76.666 14.6841 78.3437 12.894 80.96 12.894C83.585 12.894 85.2549 14.684 85.2549 17.5327C85.2549 20.3892 83.5938 22.1714 80.96 22.1714C78.3271 22.1714 76.666 20.3892 76.666 17.5327ZM83.3613 17.5327C83.3613 15.5786 82.4658 14.4253 80.96 14.4253C79.4541 14.4253 78.5596 15.5874 78.5596 17.5327C78.5596 19.4946 79.4541 20.6392 80.96 20.6392C82.4658 20.6392 83.3613 19.4946 83.3613 17.5327H83.3613Z" fill="white"/>
<path d="M86.7871 13.0054H88.5596V14.5464H88.6026C88.7225 14.0651 89.0045 13.6398 89.401 13.3419C89.7976 13.044 90.2847 12.8917 90.7803 12.9106C90.9945 12.9099 91.208 12.9331 91.417 12.98V14.7183C91.1467 14.6356 90.8646 14.5977 90.582 14.606C90.3121 14.595 90.0429 14.6426 89.7931 14.7455C89.5432 14.8484 89.3186 15.0041 89.1346 15.202C88.9506 15.3999 88.8117 15.6352 88.7272 15.8919C88.6428 16.1486 88.6149 16.4205 88.6455 16.689V22.0591H86.7871L86.7871 13.0054Z" fill="white"/>
<path d="M99.9854 19.3999C99.7354 21.0435 98.1348 22.1714 96.0869 22.1714C93.4531 22.1714 91.8184 20.4067 91.8184 17.5757C91.8184 14.7358 93.4619 12.894 96.0088 12.894C98.5137 12.894 100.089 14.6147 100.089 17.3599V17.9966H93.6943V18.1089C93.6648 18.4421 93.7065 18.7778 93.8167 19.0936C93.9269 19.4094 94.103 19.6982 94.3334 19.9408C94.5637 20.1833 94.8431 20.3741 95.1528 20.5004C95.4625 20.6267 95.7956 20.6856 96.1299 20.6733C96.5691 20.7145 97.0098 20.6128 97.3865 20.3833C97.7632 20.1539 98.0558 19.809 98.2207 19.3999L99.9854 19.3999ZM93.7031 16.6978H98.2295C98.2462 16.3982 98.2008 16.0983 98.0961 15.8171C97.9914 15.5359 97.8297 15.2794 97.6212 15.0636C97.4127 14.8479 97.1618 14.6775 96.8843 14.5633C96.6069 14.4491 96.3088 14.3935 96.0088 14.3999C95.7062 14.3981 95.4062 14.4562 95.1261 14.571C94.8461 14.6857 94.5915 14.8548 94.3772 15.0684C94.1628 15.2821 93.9929 15.536 93.8772 15.8157C93.7615 16.0953 93.7023 16.3951 93.7031 16.6978V16.6978Z" fill="white"/>
<path d="M28.4238 0.294002C28.8134 0.266043 29.2044 0.324903 29.5685 0.466336C29.9326 0.607769 30.2608 0.828249 30.5294 1.11187C30.798 1.3955 31.0003 1.7352 31.1217 2.10647C31.2431 2.47774 31.2806 2.87133 31.2314 3.25884C31.2314 5.16509 30.2012 6.26084 28.4238 6.26084H26.2686V0.294002H28.4238ZM27.1953 5.417H28.3203C28.5987 5.43364 28.8773 5.388 29.1359 5.28338C29.3944 5.17877 29.6264 5.01782 29.8149 4.81225C30.0033 4.60669 30.1436 4.36168 30.2255 4.09506C30.3074 3.82844 30.3287 3.54693 30.2881 3.271C30.3258 2.99617 30.3022 2.7164 30.2191 2.45173C30.136 2.18707 29.9954 1.94407 29.8073 1.74014C29.6192 1.53621 29.3884 1.3764 29.1313 1.27216C28.8742 1.16792 28.5973 1.12184 28.3203 1.13721H27.1953V5.417Z" fill="white"/>
<path d="M32.2781 4.00734C32.2498 3.71142 32.2837 3.41285 32.3775 3.13078C32.4713 2.84871 32.6231 2.58937 32.823 2.36939C33.023 2.14941 33.2667 1.97364 33.5385 1.85336C33.8104 1.73309 34.1044 1.67096 34.4016 1.67096C34.6989 1.67096 34.9929 1.73309 35.2648 1.85336C35.5366 1.97364 35.7803 2.14941 35.9803 2.36939C36.1802 2.58937 36.332 2.84871 36.4258 3.13078C36.5196 3.41285 36.5535 3.71142 36.5252 4.00734C36.554 4.30356 36.5206 4.60254 36.427 4.88507C36.3334 5.16759 36.1817 5.42741 35.9817 5.64782C35.7817 5.86824 35.5378 6.04437 35.2657 6.16491C34.9936 6.28544 34.6993 6.34771 34.4016 6.34771C34.104 6.34771 33.8097 6.28544 33.5376 6.16491C33.2654 6.04437 33.0216 5.86824 32.8216 5.64782C32.6216 5.42741 32.4699 5.16759 32.3763 4.88507C32.2827 4.60254 32.2493 4.30356 32.2781 4.00734ZM35.6111 4.00734C35.6111 3.03127 35.1726 2.46047 34.4031 2.46047C33.6307 2.46047 33.1961 3.03127 33.1961 4.00735C33.1961 4.99124 33.6307 5.55764 34.4031 5.55764C35.1727 5.55763 35.6111 4.98732 35.6111 4.00734H35.6111Z" fill="white"/>
<path d="M42.1709 6.26074H41.249L40.3184 2.94433H40.2481L39.3213 6.26074H38.4082L37.167 1.75781H38.0684L38.875 5.19381H38.9414L39.8672 1.75781H40.7197L41.6455 5.19381H41.7158L42.5186 1.75781H43.4072L42.1709 6.26074Z" fill="white"/>
<path d="M44.4512 1.7578H45.3066V2.47313H45.3731C45.4857 2.2162 45.6757 2.00083 45.9166 1.85703C46.1575 1.71322 46.4372 1.64815 46.7168 1.67088C46.9359 1.6544 47.1559 1.68744 47.3605 1.76753C47.5651 1.84763 47.749 1.97273 47.8987 2.13358C48.0484 2.29442 48.16 2.48688 48.2252 2.6967C48.2904 2.90652 48.3075 3.12832 48.2754 3.34568V6.26068H47.3867V3.56884C47.3867 2.84521 47.0723 2.48534 46.415 2.48534C46.2663 2.47841 46.1178 2.50373 45.9797 2.55956C45.8417 2.61539 45.7173 2.70041 45.6152 2.80879C45.5131 2.91718 45.4356 3.04636 45.3881 3.18749C45.3405 3.32862 45.3241 3.47836 45.3398 3.62645V6.26073H44.4512L44.4512 1.7578Z" fill="white"/>
<path d="M49.6914 0H50.5801V6.26074H49.6914V0Z" fill="white"/>
<path d="M51.8152 4.00736C51.7869 3.71142 51.8208 3.41284 51.9146 3.13076C52.0085 2.84868 52.1603 2.58933 52.3603 2.36934C52.5602 2.14935 52.8039 1.97358 53.0758 1.85331C53.3477 1.73303 53.6417 1.6709 53.939 1.6709C54.2363 1.6709 54.5303 1.73303 54.8021 1.85331C55.074 1.97358 55.3177 2.14935 55.5177 2.36934C55.7177 2.58933 55.8694 2.84868 55.9633 3.13076C56.0572 3.41284 56.091 3.71142 56.0628 4.00736C56.0916 4.30359 56.0581 4.60258 55.9645 4.8851C55.8708 5.16763 55.7191 5.42744 55.5191 5.64785C55.3191 5.86826 55.0752 6.04438 54.8031 6.16491C54.5309 6.28544 54.2366 6.34771 53.939 6.34771C53.6413 6.34771 53.347 6.28544 53.0749 6.16491C52.8027 6.04438 52.5588 5.86826 52.3588 5.64785C52.1588 5.42744 52.0071 5.16763 51.9135 4.8851C51.8199 4.60258 51.7864 4.30359 51.8152 4.00736ZM55.1482 4.00736C55.1482 3.03129 54.7097 2.46049 53.9402 2.46049C53.1677 2.46049 52.7332 3.03129 52.7332 4.00737C52.7332 4.99126 53.1678 5.55766 53.9402 5.55766C54.7097 5.55765 55.1482 4.98734 55.1482 4.00736H55.1482Z" fill="white"/>
<path d="M56.9985 4.9873C56.9985 4.17675 57.6021 3.70947 58.6733 3.64306L59.8931 3.57275V3.18408C59.8931 2.70849 59.5786 2.43994 58.9712 2.43994C58.4751 2.43994 58.1314 2.62207 58.0327 2.94043H57.1724C57.2632 2.16699 57.9907 1.6709 59.0122 1.6709C60.1411 1.6709 60.7778 2.2329 60.7778 3.18408V6.26074H59.9224V5.62793H59.8521C59.7093 5.85492 59.5089 6.03997 59.2713 6.16418C59.0337 6.28839 58.7674 6.34731 58.4995 6.33493C58.3105 6.35459 58.1194 6.33442 57.9387 6.27573C57.7579 6.21703 57.5914 6.1211 57.45 5.99413C57.3086 5.86716 57.1954 5.71197 57.1176 5.53855C57.0398 5.36514 56.9993 5.17735 56.9985 4.9873ZM59.8931 4.60253V4.22607L58.7935 4.29638C58.1733 4.33788 57.8921 4.54882 57.8921 4.94579C57.8921 5.35106 58.2436 5.5869 58.7271 5.5869C58.8687 5.60124 59.0118 5.58694 59.1478 5.54484C59.2838 5.50275 59.41 5.43374 59.5188 5.34189C59.6275 5.25005 59.7167 5.13727 59.781 5.01025C59.8453 4.88323 59.8834 4.74457 59.8931 4.60253Z" fill="white"/>
<path d="M61.9458 4.00734C61.9458 2.58449 62.6773 1.68312 63.8149 1.68312C64.0964 1.67015 64.3757 1.73756 64.6202 1.87745C64.8647 2.01735 65.0644 2.22395 65.1958 2.47312H65.2622V0H66.1509V6.26074H65.2993V5.54931H65.229C65.0874 5.7968 64.8808 6.00083 64.6315 6.13932C64.3823 6.2778 64.0999 6.34545 63.8149 6.33495C62.6694 6.335 61.9458 5.43361 61.9458 4.00734ZM62.8638 4.00734C62.8638 4.96242 63.314 5.53713 64.0669 5.53713C64.8159 5.53713 65.2788 4.95413 65.2788 4.01125C65.2788 3.07277 64.8111 2.48146 64.0669 2.48146C63.3189 2.48146 62.8638 3.06007 62.8638 4.00734H62.8638Z" fill="white"/>
<path d="M69.8274 4.00734C69.7991 3.71142 69.833 3.41285 69.9268 3.13078C70.0206 2.84871 70.1724 2.58937 70.3724 2.36939C70.5723 2.14941 70.816 1.97364 71.0879 1.85336C71.3597 1.73309 71.6537 1.67096 71.951 1.67096C72.2482 1.67096 72.5422 1.73309 72.8141 1.85336C73.0859 1.97364 73.3296 2.14941 73.5296 2.36939C73.7295 2.58937 73.8813 2.84871 73.9751 3.13078C74.069 3.41285 74.1028 3.71142 74.0745 4.00734C74.1033 4.30356 74.0699 4.60254 73.9763 4.88507C73.8827 5.16759 73.731 5.42741 73.531 5.64782C73.3311 5.86824 73.0872 6.04437 72.815 6.16491C72.5429 6.28544 72.2486 6.34771 71.951 6.34771C71.6533 6.34771 71.359 6.28544 71.0869 6.16491C70.8148 6.04437 70.5709 5.86824 70.3709 5.64782C70.1709 5.42741 70.0192 5.16759 69.9256 4.88507C69.832 4.60254 69.7986 4.30356 69.8274 4.00734ZM73.1604 4.00734C73.1604 3.03127 72.7219 2.46047 71.9524 2.46047C71.18 2.46047 70.7454 3.03127 70.7454 4.00735C70.7454 4.99124 71.18 5.55764 71.9524 5.55764C72.722 5.55763 73.1604 4.98732 73.1604 4.00734Z" fill="white"/>
<path d="M75.2671 1.7578H76.1226V2.47313H76.189C76.3016 2.2162 76.4916 2.00083 76.7325 1.85703C76.9734 1.71322 77.2531 1.64815 77.5327 1.67088C77.7518 1.6544 77.9718 1.68744 78.1764 1.76753C78.381 1.84763 78.565 1.97273 78.7147 2.13358C78.8643 2.29442 78.9759 2.48688 79.0411 2.6967C79.1063 2.90652 79.1235 3.12832 79.0913 3.34568V6.26068H78.2026V3.56884C78.2026 2.84521 77.8882 2.48534 77.231 2.48534C77.0822 2.47841 76.9337 2.50373 76.7956 2.55956C76.6576 2.61539 76.5332 2.70041 76.4311 2.80879C76.329 2.91718 76.2515 3.04636 76.204 3.18749C76.1565 3.32862 76.14 3.47836 76.1558 3.62645V6.26073H75.2671V1.7578Z" fill="white"/>
<path d="M84.1128 0.636719V1.77832H85.0884V2.52686H84.1128V4.84229C84.1128 5.31397 84.3071 5.52051 84.7495 5.52051C84.8628 5.52015 84.9759 5.5133 85.0884 5.5V6.24023C84.9288 6.26878 84.7671 6.28397 84.605 6.28564C83.6167 6.28564 83.2231 5.93798 83.2231 5.06982V2.52682H82.5083V1.77828H83.2231V0.636719H84.1128Z" fill="white"/>
<path d="M86.3022 0H87.1831V2.48145H87.2534C87.3715 2.22213 87.5668 2.00554 87.8125 1.86119C88.0582 1.71684 88.3424 1.65176 88.6264 1.67481C88.8444 1.66295 89.0623 1.69934 89.2645 1.78138C89.4668 1.86342 89.6485 1.9891 89.7966 2.14943C89.9447 2.30977 90.0557 2.50082 90.1214 2.70896C90.1872 2.91709 90.2063 3.13718 90.1772 3.35352V6.26075H89.2876V3.57275C89.2876 2.85351 88.9526 2.48925 88.3247 2.48925C88.172 2.47672 88.0184 2.49772 87.8746 2.55077C87.7308 2.60383 87.6004 2.68766 87.4924 2.79639C87.3844 2.90513 87.3015 3.03615 87.2494 3.18029C87.1973 3.32443 87.1774 3.4782 87.191 3.63085V6.26073H86.3023L86.3022 0Z" fill="white"/>
<path d="M95.359 5.04493C95.2383 5.45647 94.9767 5.81246 94.62 6.05061C94.2633 6.28876 93.8343 6.39391 93.4079 6.34766C93.1112 6.35549 92.8164 6.29867 92.5439 6.18114C92.2714 6.06362 92.0277 5.8882 91.8298 5.66706C91.6319 5.44592 91.4845 5.18436 91.3978 4.90054C91.3111 4.61672 91.2872 4.31743 91.3278 4.02345C91.2883 3.72857 91.3126 3.42864 91.3991 3.14396C91.4856 2.85929 91.6322 2.59652 91.8291 2.37345C92.026 2.15038 92.2685 1.9722 92.5402 1.851C92.8119 1.72979 93.1065 1.66838 93.404 1.67091C94.6569 1.67091 95.4128 2.52691 95.4128 3.94091V4.251H92.2331V4.3008C92.2191 4.46605 92.2399 4.63238 92.294 4.78913C92.3482 4.94588 92.4344 5.08959 92.5474 5.21104C92.6603 5.3325 92.7973 5.42902 92.9497 5.49442C93.1021 5.55981 93.2665 5.59264 93.4323 5.5908C93.6449 5.61632 93.8602 5.57804 94.051 5.48084C94.2417 5.38363 94.3993 5.23189 94.5036 5.0449L95.359 5.04493ZM92.233 3.59376H94.5075C94.5187 3.44263 94.4981 3.29084 94.4472 3.14812C94.3962 3.0054 94.316 2.87492 94.2116 2.76506C94.1072 2.6552 93.981 2.5684 93.841 2.51022C93.7011 2.45205 93.5506 2.42379 93.3991 2.42726C93.2454 2.42533 93.0928 2.45419 92.9505 2.51213C92.8081 2.57008 92.6788 2.65594 92.5701 2.76465C92.4614 2.87336 92.3756 3.00273 92.3177 3.14513C92.2599 3.28752 92.2311 3.44007 92.2331 3.59376H92.233Z" fill="white"/>
</svg>
